<?xml version="1.0" standalone="no"?>
<!DOCTYPE svg PUBLIC "-//W3C//DTD SVG 20010904//EN"
 "http://www.w3.org/TR/2001/REC-SVG-20010904/DTD/svg10.dtd">
<svg version="1.0" xmlns="http://www.w3.org/2000/svg"
 width="500.000000pt" height="500.000000pt" viewBox="0 0 500.000000 500.000000"
 preserveAspectRatio="xMidYMid meet">

<g transform="translate(0.000000,500.000000) scale(0.100000,-0.100000)"
fill="#000000" stroke="none">
<path d="M0 2500 l0 -2500 2500 0 2500 0 0 2500 0 2500 -2500 0 -2500 0 0
-2500z m1714 1005 c54 -9 125 -46 165 -87 45 -44 81 -123 81 -175 l0 -43 -95
0 c-79 0 -95 3 -95 15 0 29 -30 75 -60 90 -65 34 -169 6 -190 -51 -15 -38 -12
-97 6 -122 22 -32 61 -48 131 -55 131 -14 231 -76 280 -175 24 -49 28 -68 27
-142 0 -67 -5 -95 -23 -132 -44 -91 -144 -160 -251 -174 l-50 -7 0 95 0 95 39
12 c86 25 118 117 65 180 -36 43 -56 52 -136 62 -182 23 -288 127 -296 289 -6
131 54 237 170 296 48 24 136 44 173 38 11 -1 38 -6 59 -9z m1070 9 c14 -5 16
-49 16 -390 0 -358 -1 -388 -20 -441 -38 -107 -128 -185 -255 -218 -204 -53
-415 32 -491 198 l-29 62 -3 298 -3 297 100 0 101 0 0 -257 c1 -269 6 -310 47
-355 73 -83 261 -75 324 13 l24 34 3 375 c2 280 6 376 15 382 14 9 148 11 171
2z m466 -20 c274 -54 410 -240 397 -544 -8 -206 -82 -336 -234 -418 -107 -57
-188 -73 -390 -79 l-183 -6 0 217 0 216 100 0 100 0 0 -115 0 -115 68 0 c132
0 243 55 293 145 57 101 58 259 4 366 -51 99 -170 159 -315 159 l-50 0 0 -120
0 -120 -100 0 -100 0 0 214 c0 162 3 216 13 220 22 10 320 -5 397 -20z m-1552
-1182 c9 -7 12 -60 10 -233 l-3 -224 -102 -3 -103 -3 0 230 c0 174 3 231 13
234 20 9 171 7 185 -1z m596 2 c14 -5 16 -62 16 -535 l0 -529 -100 0 -100 0 0
100 0 100 -200 0 -199 0 -3 -97 -3 -98 -100 0 -100 0 -3 198 -2 197 305 0 305
0 0 329 c0 254 3 330 13 334 18 8 152 8 171 1z m388 -436 l3 -443 58 -3 57 -3
0 -89 0 -90 -220 0 -220 0 -5 23 c-3 12 -5 52 -3 87 l3 65 63 3 62 3 0 444 0
445 100 0 100 0 2 -442z m777 428 c8 -9 11 -43 9 -93 l-3 -78 -314 -3 c-245
-2 -316 1 -323 10 -12 20 -10 152 4 166 19 19 611 17 627 -2z m-211 -713 l-3
-338 -100 0 -100 0 -3 338 -2 337 105 0 105 0 -2 -337z"/>
</g>
</svg>
